<?xml version="1.0" encoding="utf-8"?>
<!-- Generator: Adobe Illustrator 25.0.1, SVG Export Plug-In . SVG Version: 6.00 Build 0)  -->
<svg version="1.1" id="Layer_1" xmlns="http://www.w3.org/2000/svg" xmlns:xlink="http://www.w3.org/1999/xlink" x="0px" y="0px"
	 viewBox="0 0 1366 768" style="enable-background:new 0 0 1366 768;" xml:space="preserve">
<style type="text/css">
	.st0{fill:none;stroke:#FFFFFF;stroke-width:0.94;stroke-miterlimit:10;}
</style>
<path class="st0" d="M423.6,410.9c-6.7-1.8-10.1-2.8-12.2-4.8c-2.6-2.7-4.2-6.1-4.6-9.8c-0.4-3.3-0.1-7.7,1.4-8s1.8,4.9,6.1,8.3
	c5,4,9.3,0.8,12.2,4.8c1.6,2.2,2.1,5.8,4,8.1c0.7,0.9,1.5,1.7,2.3,2.4c0.9,0.7,1.4,0.9,1.4,1C434.1,413.4,429,412.4,423.6,410.9z"/>
<path class="st0" d="M412.6,400.8c1.1,1.2,2.4,2.3,3.9,3c2.3,1,4.4,2.3,6.4,3.7c3.3,2.5,7.1,4.3,11,5.4"/>
<path class="st0" d="M437.1,391.6c0.8-2,2.4-6,6.3-7.8c2.8-1.2,5.9-1.2,8.7,0c3.2,1.3,3,3.1,7,5.1c3.4,1.7,6.2,2,6.2,2.5
	s-1.7,0.6-3.7,1c-6.2,1.3-6.5,3.8-10.2,4c-4.3,0.2-5.1-3.2-9.2-2.5c-1.7,0.3-3.9,0.7-5.3,2.4c-0.3,0.3-0.6,0.8-0.8,0.7
	C435.7,396.7,436.3,393.6,437.1,391.6z"/>
<path class="st0" d="M453.2,390.8l-4.1-1.4c-1.5-0.6-3.1-0.9-4.7-0.9c-2,0.3-3.9,1.3-5.1,2.9c-1.2,1.6-2.3,3.3-3.1,5.2"/>
<path class="st0" d="M416.6,365c-2.4-3.4-4-7.4-4.6-11.5c-0.8-4.7-0.9-11.1,0.8-11.6c1.2-0.4,2,2.8,6.9,7c3.8,3.2,5,2.7,7.1,5.2
	c1.9,2.2,2.3,4.9,3.3,10.2c1.2,6.5,1.8,9.8,0.5,10.5C428.2,376.2,420.8,370.7,416.6,365z"/>
<path class="st0" d="M417.4,356.7c0.3,2.5,1.6,4.9,3.5,6.5c1.8,1.7,4,3.1,5.9,4.8c2,1.6,3.4,3.8,4,6.3"/>
<path class="st0" d="M431,483.6l-14-9.2l10.7-12.2l-12.9-7l6.6-17.3c-8.4-13.8-24.3-18.1-38.7-10.5c-24.7,13-20.7,47.8-8.7,68.3
	c9.2,15.6,24.9,26.3,40.3,35c3.6,2,7.2,3.9,11,5.5c1.9,0.9,10.5-4.7,12.3-5.7c4.7-2.6,9.1-5.6,13.3-8.9c7.4-6,14.1-13,19.8-20.6
	c11.4-15.2,20.8-35.9,13.6-54.9c-0.9-2.3-7.5-19-23.2-22.5c-13-2.9-24.1,4.8-25,6.3c-6.2,10.1-10.3,20.6-12.2,22.5l14.7,7.7
	L424,473.6l11.8,8.5L424,497.2L431,483.6z"/>
<path class="st0" d="M430.7,373.6c5,10.8,6,23.2,4.2,35s-6.1,23-11.4,33.7"/>
</svg>
