<svg width="2111" height="2073" viewBox="0 0 2111 2073" fill="none" xmlns="http://www.w3.org/2000/svg">
<path fill-rule="evenodd" clip-rule="evenodd" d="M1936.53 21H174.467C94.1279 21 29 85.8232 29 165.787V1875.32C29 1955.29 94.1279 2020.11 174.467 2020.11H1936.53C2016.87 2020.11 2082 1955.29 2082 1875.32V165.787C2082 85.8232 2016.87 21 1936.53 21ZM1946.3 245.608C1946.3 211.257 1918.32 183.41 1883.81 183.41H227.194C192.681 183.41 164.703 211.257 164.703 245.608V1736.66C164.703 1771.01 192.681 1798.86 227.194 1798.86H1883.81C1918.32 1798.86 1946.3 1771.01 1946.3 1736.66V245.608Z" fill="#5E5E5E"/>
<path d="M174.467 25.055H1936.53V16.945H174.467V25.055ZM33.055 165.787C33.055 88.0807 96.3495 25.055 174.467 25.055V16.945C91.9063 16.945 24.945 83.5658 24.945 165.787H33.055ZM33.055 1875.32V165.787H24.945V1875.32H33.055ZM174.467 2016.06C96.3495 2016.06 33.055 1953.03 33.055 1875.32H24.945C24.945 1957.54 91.9063 2024.17 174.467 2024.17V2016.06ZM1936.53 2016.06H174.467V2024.17H1936.53V2016.06ZM2077.95 1875.32C2077.95 1953.03 2014.65 2016.06 1936.53 2016.06V2024.17C2019.09 2024.17 2086.05 1957.54 2086.05 1875.32H2077.95ZM2077.95 165.787V1875.32H2086.05V165.787H2077.95ZM1936.53 25.055C2014.65 25.055 2077.95 88.0807 2077.95 165.787H2086.05C2086.05 83.5658 2019.09 16.945 1936.53 16.945V25.055ZM1883.81 187.465C1916.1 187.465 1942.25 213.515 1942.25 245.608H1950.36C1950.36 209 1920.55 179.355 1883.81 179.355V187.465ZM1883.81 179.355H227.194V187.465H1883.81V179.355ZM168.758 245.608C168.758 213.515 194.903 187.465 227.194 187.465V179.355C190.459 179.355 160.648 209 160.648 245.608H168.758ZM160.648 245.608V1736.66H168.758V245.608H160.648ZM227.194 1794.8C194.903 1794.8 168.758 1768.75 168.758 1736.66H160.648C160.648 1773.27 190.459 1802.91 227.194 1802.91V1794.8ZM227.194 1802.91H1883.81V1794.8H227.194V1802.91ZM1942.25 1736.66C1942.25 1768.75 1916.1 1794.8 1883.81 1794.8V1802.91C1920.55 1802.91 1950.36 1773.27 1950.36 1736.66H1942.25ZM1950.36 1736.66V245.608H1942.25V1736.66H1950.36Z" fill="black"/>
<path fill-rule="evenodd" clip-rule="evenodd" d="M151.555 2H1959.22C2041.81 2 2108.77 68.958 2108.77 151.555V1921.6C2108.77 2004.2 2041.81 2071.16 1959.22 2071.16H151.555C68.958 2071.16 2 2004.2 2 1921.6V151.555C2 68.958 68.958 2 151.555 2ZM179.24 21.0371H1931.53C2011.42 21.0371 2076.19 85.8036 2076.19 165.697V1873.74C2076.19 1953.63 2011.42 2018.4 1931.53 2018.4H179.24C99.3466 2018.4 34.5801 1953.63 34.5801 1873.74V165.697C34.5801 85.8036 99.3466 21.0371 179.24 21.0371Z" fill="#333333"/>
<path d="M1959.22 0.39H151.555V3.61H1959.22V0.39ZM2110.38 151.555C2110.38 68.0688 2042.7 0.39 1959.22 0.39V3.61C2040.92 3.61 2107.16 69.8472 2107.16 151.555H2110.38ZM2110.38 1921.6V151.555H2107.16V1921.6H2110.38ZM1959.22 2072.77C2042.7 2072.77 2110.38 2005.09 2110.38 1921.6H2107.16C2107.16 2003.31 2040.92 2069.55 1959.22 2069.55V2072.77ZM151.555 2072.77H1959.22V2069.55H151.555V2072.77ZM0.39 1921.6C0.39 2005.09 68.0688 2072.77 151.555 2072.77V2069.55C69.8472 2069.55 3.61 2003.31 3.61 1921.6H0.39ZM0.39 151.555V1921.6H3.61V151.555H0.39ZM151.555 0.39C68.0688 0.39 0.39 68.0688 0.39 151.555H3.61C3.61 69.8472 69.8472 3.61 151.555 3.61V0.39ZM1931.53 19.4271H179.24V22.6471H1931.53V19.4271ZM2077.8 165.697C2077.8 84.9144 2012.31 19.4271 1931.53 19.4271V22.6471C2010.53 22.6471 2074.58 86.6928 2074.58 165.697H2077.8ZM2077.8 1873.74V165.697H2074.58V1873.74H2077.8ZM1931.53 2020.01C2012.31 2020.01 2077.8 1954.52 2077.8 1873.74H2074.58C2074.58 1952.74 2010.53 2016.79 1931.53 2016.79V2020.01ZM179.24 2020.01H1931.53V2016.79H179.24V2020.01ZM32.9701 1873.74C32.9701 1954.52 98.4574 2020.01 179.24 2020.01V2016.79C100.236 2016.79 36.1901 1952.74 36.1901 1873.74H32.9701ZM32.9701 165.697V1873.74H36.1901V165.697H32.9701ZM179.24 19.4271C98.4574 19.4271 32.9701 84.9144 32.9701 165.697H36.1901C36.1901 86.6928 100.236 22.6471 179.24 22.6471V19.4271Z" fill="black"/>
<path d="M1163.38 1915.97H974.961C969.191 1915.97 964.514 1920.64 964.514 1926.41V1949.75C964.514 1955.52 969.191 1960.19 974.961 1960.19H1163.38C1169.15 1960.19 1173.83 1955.52 1173.83 1949.75V1926.41C1173.83 1920.64 1169.15 1915.97 1163.38 1915.97Z" fill="#B8B8B8" stroke="black" stroke-width="0.96" stroke-miterlimit="10"/>
<path d="M1528.1 54H610.265C592.998 54 579 67.9979 579 85.2653V107.205C579 124.473 592.998 138.47 610.265 138.47H1528.1C1545.37 138.47 1559.37 124.473 1559.37 107.205V85.2653C1559.37 67.9979 1545.37 54 1528.1 54Z" fill="#6B6B6B"/>
<path d="M1520.98 61.1582H617.384C601.816 61.1582 589.195 73.7789 589.195 89.3473V103.123C589.195 118.691 601.816 131.312 617.384 131.312H1520.98C1536.55 131.312 1549.17 118.691 1549.17 103.123V89.3473C1549.17 73.7789 1536.55 61.1582 1520.98 61.1582Z" fill="#858585"/>
<path d="M1344.21 1826.85H809.019C797.084 1826.85 787.408 1836.53 787.408 1848.46V1873.64C787.408 1885.57 797.084 1895.25 809.019 1895.25H1344.21C1356.14 1895.25 1365.82 1885.57 1365.82 1873.64V1848.46C1365.82 1836.53 1356.14 1826.85 1344.21 1826.85Z" fill="#6B6B6B"/>
<path d="M1331.9 1834.9H821.325C811.024 1834.9 802.674 1843.25 802.674 1853.55V1870.08C802.674 1880.38 811.024 1888.73 821.325 1888.73H1331.9C1342.2 1888.73 1350.55 1880.38 1350.55 1870.08V1853.55C1350.55 1843.25 1342.2 1834.9 1331.9 1834.9Z" fill="#858585"/>
</svg>
